HIERARCHY
ROOT mixamorig:Hips
{
	OFFSET 0.000000 3.528733 0.000000
	CHANNELS 6 Xposition Yposition Zposition Xrotation Yrotation Zrotation
	JOINT mixamorig:Spine
	{
		OFFSET 0.000000 0.284700 -0.015200
		CHANNELS 3 Xrotation Yrotation Zrotation
		JOINT mixamorig:Spine1
		{
			OFFSET 0.000000 0.332125 -0.017771
			CHANNELS 3 Xrotation Yrotation Zrotation
			JOINT mixamorig:Spine2
			{
				OFFSET 0.000000 0.379557 -0.020309
				CHANNELS 3 Xrotation Yrotation Zrotation
				JOINT mixamorig:Neck
				{
					OFFSET 0.000000 0.426989 -0.022847
					CHANNELS 3 Xrotation Yrotation Zrotation
					JOINT mixamorig:Head
					{
						OFFSET 0.000000 0.288600 0.098000
						CHANNELS 3 Xrotation Yrotation Zrotation
						JOINT mixamorig:HeadTop_End
						{
							OFFSET 0.000000 0.712700 0.242000
							CHANNELS 3 Xrotation Yrotation Zrotation
							End Site
							{
								OFFSET 0.000000 0.752666 0.000000
							}
						}
					}
				}
				JOINT mixamorig:LeftShoulder
				{
					OFFSET 0.202600 0.346984 -0.022672
					CHANNELS 3 Xrotation Yrotation Zrotation
					JOINT mixamorig:LeftArm
					{
						OFFSET 0.427337 -0.109325 0.000307
						CHANNELS 3 Xrotation Yrotation Zrotation
						JOINT mixamorig:LeftForeArm
						{
							OFFSET 0.849600 0.000000 0.000000
							CHANNELS 3 Xrotation Yrotation Zrotation
							JOINT mixamorig:LeftHand
							{
								OFFSET 0.753900 0.000000 0.000000
								CHANNELS 3 Xrotation Yrotation Zrotation
								JOINT mixamorig:LeftHandThumb1
								{
									OFFSET 0.136012 -0.086473 0.045448
									CHANNELS 3 Xrotation Yrotation Zrotation
									JOINT mixamorig:LeftHandThumb2
									{
										OFFSET 0.103772 -0.059913 0.059913
										CHANNELS 3 Xrotation Yrotation Zrotation
										JOINT mixamorig:LeftHandThumb3
										{
											OFFSET 0.095779 -0.055298 0.055298
											CHANNELS 3 Xrotation Yrotation Zrotation
											JOINT mixamorig:LeftHandThumb4
											{
												OFFSET 0.073275 -0.042305 0.042305
												CHANNELS 3 Xrotation Yrotation Zrotation
												End Site
												{
													OFFSET 0.065698 -0.038445 0.056164
												}
											}
										}
									}
								}
								JOINT mixamorig:LeftHandIndex1
								{
									OFFSET 0.449965 -0.020370 0.085418
									CHANNELS 3 Xrotation Yrotation Zrotation
									JOINT mixamorig:LeftHandIndex2
									{
										OFFSET 0.102424 0.000000 -0.000000
										CHANNELS 3 Xrotation Yrotation Zrotation
										JOINT mixamorig:LeftHandIndex3
										{
											OFFSET 0.096306 0.000000 -0.000000
											CHANNELS 3 Xrotation Yrotation Zrotation
											JOINT mixamorig:LeftHandIndex4
											{
												OFFSET 0.078408 0.000000 -0.000000
												CHANNELS 3 Xrotation Yrotation Zrotation
												End Site
												{
													OFFSET 0.078400 -0.000010 -0.001100
												}
											}
										}
									}
								}
								JOINT mixamorig:LeftHandMiddle1
								{
									OFFSET 0.430485 0.000000 0.000000
									CHANNELS 3 Xrotation Yrotation Zrotation
									JOINT mixamorig:LeftHandMiddle2
									{
										OFFSET 0.112203 0.000000 0.000000
										CHANNELS 3 Xrotation Yrotation Zrotation
										JOINT mixamorig:LeftHandMiddle3
										{
											OFFSET 0.108209 0.000000 0.000000
											CHANNELS 3 Xrotation Yrotation Zrotation
											JOINT mixamorig:LeftHandMiddle4
											{
												OFFSET 0.087466 0.000000 0.000000
												CHANNELS 3 Xrotation Yrotation Zrotation
												End Site
												{
													OFFSET 0.087400 -0.000057 -0.003400
												}
											}
										}
									}
								}
								JOINT mixamorig:LeftHandRing1
								{
									OFFSET 0.364574 -0.002440 -0.092011
									CHANNELS 3 Xrotation Yrotation Zrotation
									JOINT mixamorig:LeftHandRing2
									{
										OFFSET 0.114832 0.000000 0.000000
										CHANNELS 3 Xrotation Yrotation Zrotation
										JOINT mixamorig:LeftHandRing3
										{
											OFFSET 0.104409 0.000000 0.000000
											CHANNELS 3 Xrotation Yrotation Zrotation
											JOINT mixamorig:LeftHandRing4
											{
												OFFSET 0.080424 0.000000 0.000000
												CHANNELS 3 Xrotation Yrotation Zrotation
												End Site
												{
													OFFSET 0.080200 -0.000053 -0.006000
												}
											}
										}
									}
								}
								JOINT mixamorig:LeftHandPinky1
								{
									OFFSET 0.312269 -0.016255 -0.171399
									CHANNELS 3 Xrotation Yrotation Zrotation
									JOINT mixamorig:LeftHandPinky2
									{
										OFFSET 0.087028 0.000000 0.000000
										CHANNELS 3 Xrotation Yrotation Zrotation
										JOINT mixamorig:LeftHandPinky3
										{
											OFFSET 0.073733 0.000000 0.000000
											CHANNELS 3 Xrotation Yrotation Zrotation
											JOINT mixamorig:LeftHandPinky4
											{
												OFFSET 0.056250 0.000000 0.000000
												CHANNELS 3 Xrotation Yrotation Zrotation
												End Site
												{
													OFFSET 0.056100 -0.000056 -0.004100
												}
											}
										}
									}
								}
							}
						}
					}
				}
				JOINT mixamorig:RightShoulder
				{
					OFFSET -0.202600 0.346968 -0.022971
					CHANNELS 3 Xrotation Yrotation Zrotation
					JOINT mixamorig:RightArm
					{
						OFFSET -0.427342 -0.109309 -0.000307
						CHANNELS 3 Xrotation Yrotation Zrotation
						JOINT mixamorig:RightForeArm
						{
							OFFSET -0.849600 0.000000 -0.000000
							CHANNELS 3 Xrotation Yrotation Zrotation
							JOINT mixamorig:RightHand
							{
								OFFSET -0.753900 0.000000 -0.000000
								CHANNELS 3 Xrotation Yrotation Zrotation
								JOINT mixamorig:RightHandThumb1
								{
									OFFSET -0.139217 -0.077736 0.046135
									CHANNELS 3 Xrotation Yrotation Zrotation
									JOINT mixamorig:RightHandThumb2
									{
										OFFSET -0.102889 -0.059403 0.059403
										CHANNELS 3 Xrotation Yrotation Zrotation
										JOINT mixamorig:RightHandThumb3
										{
											OFFSET -0.097122 -0.056073 0.056073
											CHANNELS 3 Xrotation Yrotation Zrotation
											JOINT mixamorig:RightHandThumb4
											{
												OFFSET -0.076714 -0.044291 0.044291
												CHANNELS 3 Xrotation Yrotation Zrotation
												End Site
												{
													OFFSET -0.072157 -0.042014 0.053259
												}
											}
										}
									}
								}
								JOINT mixamorig:RightHandIndex1
								{
									OFFSET -0.450325 -0.003448 0.076701
									CHANNELS 3 Xrotation Yrotation Zrotation
									JOINT mixamorig:RightHandIndex2
									{
										OFFSET -0.104343 0.000000 -0.000000
										CHANNELS 3 Xrotation Yrotation Zrotation
										JOINT mixamorig:RightHandIndex3
										{
											OFFSET -0.097003 0.000000 -0.000000
											CHANNELS 3 Xrotation Yrotation Zrotation
											JOINT mixamorig:RightHandIndex4
											{
												OFFSET -0.081630 0.000000 -0.000000
												CHANNELS 3 Xrotation Yrotation Zrotation
												End Site
												{
													OFFSET -0.081600 -0.000082 -0.002198
												}
											}
										}
									}
								}
								JOINT mixamorig:RightHandMiddle1
								{
									OFFSET -0.397234 0.000000 -0.000000
									CHANNELS 3 Xrotation Yrotation Zrotation
									JOINT mixamorig:RightHandMiddle2
									{
										OFFSET -0.115313 0.000000 -0.000000
										CHANNELS 3 Xrotation Yrotation Zrotation
										JOINT mixamorig:RightHandMiddle3
										{
											OFFSET -0.121324 0.000000 -0.000000
											CHANNELS 3 Xrotation Yrotation Zrotation
											JOINT mixamorig:RightHandMiddle4
											{
												OFFSET -0.103502 0.000000 0.000000
												CHANNELS 3 Xrotation Yrotation Zrotation
												End Site
												{
													OFFSET -0.103400 -0.000083 -0.004599
												}
											}
										}
									}
								}
								JOINT mixamorig:RightHandRing1
								{
									OFFSET -0.356229 0.006227 -0.097026
									CHANNELS 3 Xrotation Yrotation Zrotation
									JOINT mixamorig:RightHandRing2
									{
										OFFSET -0.116123 0.000000 0.000000
										CHANNELS 3 Xrotation Yrotation Zrotation
										JOINT mixamorig:RightHandRing3
										{
											OFFSET -0.105608 0.000000 0.000000
											CHANNELS 3 Xrotation Yrotation Zrotation
											JOINT mixamorig:RightHandRing4
											{
												OFFSET -0.089388 0.000000 0.000000
												CHANNELS 3 Xrotation Yrotation Zrotation
												End Site
												{
													OFFSET -0.089200 -0.000198 -0.005797
												}
											}
										}
									}
								}
								JOINT mixamorig:RightHandPinky1
								{
									OFFSET -0.319258 -0.005155 -0.189362
									CHANNELS 3 Xrotation Yrotation Zrotation
									JOINT mixamorig:RightHandPinky2
									{
										OFFSET -0.084919 0.000000 0.000000
										CHANNELS 3 Xrotation Yrotation Zrotation
										JOINT mixamorig:RightHandPinky3
										{
											OFFSET -0.068357 0.000000 0.000000
											CHANNELS 3 Xrotation Yrotation Zrotation
											JOINT mixamorig:RightHandPinky4
											{
												OFFSET -0.053427 0.000000 0.000000
												CHANNELS 3 Xrotation Yrotation Zrotation
												End Site
												{
													OFFSET -0.053400 -0.000117 -0.001696
												}
											}
										}
									}
								}
							}
						}
					}
				}
			}
		}
	}
	JOINT mixamorig:LeftUpLeg
	{
		OFFSET 0.302300 -0.158000 -0.006800
		CHANNELS 3 Xrotation Yrotation Zrotation
		JOINT mixamorig:LeftLeg
		{
			OFFSET -0.021195 -1.512800 -0.072827
			CHANNELS 3 Xrotation Yrotation Zrotation
			JOINT mixamorig:LeftFoot
			{
				OFFSET 0.021196 -1.499076 -0.232845
				CHANNELS 3 Xrotation Yrotation Zrotation
				JOINT mixamorig:LeftToeBase
				{
					OFFSET 0.176214 -0.335644 0.384848
					CHANNELS 3 Xrotation Yrotation Zrotation
					JOINT mixamorig:LeftToe_End
					{
						OFFSET 0.078950 -0.008059 0.195507
						CHANNELS 3 Xrotation Yrotation Zrotation
						End Site
						{
							OFFSET 0.078950 -0.008059 0.195507
						}
					}
				}
			}
		}
	}
	JOINT mixamorig:RightUpLeg
	{
		OFFSET -0.302300 -0.158000 -0.006600
		CHANNELS 3 Xrotation Yrotation Zrotation
		JOINT mixamorig:RightLeg
		{
			OFFSET 0.021196 -1.512831 -0.074247
			CHANNELS 3 Xrotation Yrotation Zrotation
			JOINT mixamorig:RightFoot
			{
				OFFSET -0.021196 -1.499093 -0.231430
				CHANNELS 3 Xrotation Yrotation Zrotation
				JOINT mixamorig:RightToeBase
				{
					OFFSET -0.176206 -0.335620 0.376547
					CHANNELS 3 Xrotation Yrotation Zrotation
					JOINT mixamorig:RightToe_End
					{
						OFFSET -0.078935 -0.008056 0.196268
						CHANNELS 3 Xrotation Yrotation Zrotation
						End Site
						{
							OFFSET -0.078935 -0.008056 0.196268
						}
					}
				}
			}
		}
	}
}
MOTION
Frames: 4
Frame Time: 0.016667
0.013607 3.455069 8.307598 7.617421 -0.537085 -3.649270 4.502331 -4.439126 2.350664 9.187781 -9.173064 4.659972 9.187774 -9.173061 4.659971 -10.374666 5.546948 -0.750893 -10.689003 12.011951 0.106985 -0.000001 -0.000001 0.000000 0.857980 -5.760922 -10.746101 -10.221657 7.800503 -53.925631 -350.761305 -117.831459 -350.801548 3.512884 -25.660013 3.317250 -3.691978 -7.086338 -6.633075 5.370486 13.667905 2.734582 -0.000006 0.000001 0.000020 0.000001 -0.000005 -0.000003 -4.640428 -5.516746 -79.805986 -6.326545 -4.179771 -87.809957 -0.000010 0.000004 -0.000002 -0.000002 0.000002 0.000001 -4.972075 -3.767490 -83.285776 -5.316352 -5.400903 -81.591548 -0.000001 -0.000009 -0.000002 -0.000000 -0.000001 0.000001 -3.774312 4.564394 -87.331543 -3.172421 -4.314186 -84.314280 -0.000004 0.000002 -0.000000 0.000001 -0.000000 -0.000002 -3.365518 10.941001 -92.988914 -1.729023 -6.211035 -93.836329 0.000009 -0.000002 0.000005 -0.000000 -0.000002 -0.000001 0.818132 -2.046124 3.448274 33.388208 -30.964499 57.984843 1.896248 81.350592 11.591087 -2.223300 15.337922 7.637675 1.724692 0.830714 7.083418 7.323083 -18.101738 -2.898489 -0.000004 -0.000004 0.000015 -0.000001 0.000000 -0.000003 3.778536 1.576341 64.285085 -4.716511 2.914261 83.459946 -0.000008 -0.000001 0.000007 0.000002 0.000000 -0.000002 -1.641849 1.483963 69.469233 -3.968650 4.199674 77.242118 0.000004 0.000010 0.000002 -0.000002 0.000000 0.000002 -2.717149 -3.252548 76.921488 -4.093206 5.610769 79.913527 0.000012 0.000006 -0.000002 -0.000001 -0.000000 -0.000002 -3.162393 -7.775413 89.655174 -4.766830 9.370690 89.469447 0.000011 -0.000006 0.000005 0.000000 -0.000001 -0.000002 15.309324 7.225039 -2.800668 37.227144 -5.343347 7.447809 9.887686 0.173105 -4.685797 -0.305136 -4.134408 -4.586123 0.000001 0.000000 0.000000 -50.687944 -3.111293 1.557156 15.859320 -2.899029 0.164825 0.932613 0.118363 4.027302 -7.072227 12.929633 -5.691455 -0.000001 0.000001 -0.000000 
0.013882 3.440973 8.587700 6.815893 -0.786533 -3.294696 4.649652 -4.192773 2.358398 9.464014 -8.781654 4.575516 9.464010 -8.781662 4.575517 -9.170040 5.412571 -1.329844 -12.293547 11.746742 -0.982083 -0.000001 -0.000001 0.000000 0.843608 -5.817473 -10.849861 -8.977534 8.609401 -54.148432 -351.209365 -119.584673 -351.302010 3.742153 -25.494058 2.741178 -3.691976 -7.086339 -6.633075 5.370491 13.667899 2.734580 -0.000006 -0.000006 0.000025 -0.000001 -0.000001 -0.000003 -4.668411 -5.521670 -80.092383 -6.361146 -4.181014 -88.095500 -0.000011 0.000005 -0.000002 0.000001 -0.000000 0.000001 -4.999664 -3.769715 -83.571360 -5.347001 -5.404281 -81.877890 -0.000001 -0.000004 -0.000006 0.000000 0.000002 -0.000002 -3.794477 4.562768 -87.614334 -3.189985 -4.316858 -84.600178 -0.000007 0.000004 -0.000004 0.000001 -0.000001 -0.000000 -3.381234 10.940849 -93.270645 -1.735136 -6.210621 -94.122069 0.000009 -0.000002 0.000006 -0.000002 -0.000003 -0.000001 0.804670 -2.062736 3.402689 34.350073 -31.000217 59.566920 0.745460 82.456776 12.046679 -1.487231 14.224219 6.783764 1.724848 0.830750 7.083311 7.325715 -18.108088 -2.898846 -0.000003 -0.000006 0.000011 -0.000001 0.000000 -0.000005 3.788214 1.519813 63.944866 -4.682297 2.910220 83.115226 -0.000009 -0.000002 0.000002 -0.000000 0.000001 -0.000001 -1.622147 1.459915 69.125394 -3.938640 4.192814 76.896585 0.000001 0.000012 0.000004 -0.000001 -0.000001 -0.000001 -2.685091 -3.260674 76.580170 -4.063792 5.604741 79.567346 0.000012 0.000004 -0.000004 0.000002 0.000001 0.000001 -3.124688 -7.775767 89.317400 -4.740160 9.370450 89.121579 0.000010 -0.000007 0.000003 -0.000002 -0.000000 0.000001 14.925913 7.263951 -3.358490 44.925778 -3.043191 7.760973 10.538387 0.112507 -5.732891 -2.722621 -3.848355 -4.539423 0.000002 -0.000002 0.000001 -50.115465 -3.281659 1.898400 15.610568 0.943584 -0.128104 -2.598326 -0.055381 5.929608 -6.505597 13.470631 -5.972279 -0.000001 -0.000001 -0.000001 
0.011841 3.420061 8.876962 6.436007 -0.722366 -3.209211 4.727739 -3.918783 2.386687 9.601168 -8.253292 4.527455 9.601178 -8.253294 4.527458 -9.022023 4.982920 -1.238420 -11.769957 11.167554 -1.944233 -0.000000 0.000000 0.000000 0.830402 -5.890865 -10.938036 -7.085096 9.438712 -54.748747 -351.203218 -120.762485 -351.713515 4.161049 -25.233429 2.286652 -3.691977 -7.086343 -6.633076 5.370487 13.667901 2.734579 -0.000006 -0.000004 0.000012 0.000003 -0.000001 -0.000003 -4.678157 -5.523362 -80.192001 -6.373177 -4.181424 -88.194811 -0.000011 0.000001 -0.000003 0.000000 0.000001 -0.000000 -5.008313 -3.770594 -83.670698 -5.357636 -5.405368 -81.977467 -0.000001 -0.000003 -0.000003 0.000000 0.000001 -0.000001 -3.802096 4.562422 -87.712620 -3.197076 -4.317600 -84.699584 -0.000006 -0.000001 -0.000004 0.000001 -0.000003 -0.000001 -3.386726 10.940773 -93.368604 -1.737257 -6.210539 -94.221408 0.000009 -0.000001 0.000003 -0.000001 -0.000002 0.000001 0.785850 -2.128571 4.005351 34.149068 -30.148527 60.090153 -2.100379 83.615818 14.560066 -1.097786 13.602480 5.801410 1.724846 0.830750 7.083363 7.326681 -18.110281 -2.898867 -0.000003 -0.000001 0.000015 -0.000001 0.000000 -0.000006 3.791509 1.500139 63.826253 -4.670360 2.908763 82.994899 -0.000010 -0.000002 0.000008 -0.000002 -0.000000 0.000003 -1.615308 1.451525 69.005476 -3.928161 4.190365 76.776012 0.000006 0.000011 0.000002 0.000002 0.000001 -0.000000 -2.673905 -3.263459 76.461079 -4.053544 5.602717 79.446452 0.000013 0.000005 -0.000005 -0.000001 0.000000 0.000000 -3.111490 -7.775913 89.199593 -4.730814 9.370282 89.000083 0.000008 -0.000006 0.000004 -0.000000 -0.000001 -0.000002 12.804014 7.776608 -2.722945 53.346810 0.398669 7.610308 10.350750 0.080752 -6.662183 -2.378086 -3.602529 -4.672009 0.000001 0.000000 0.000001 -48.991769 -3.421728 2.138082 15.295640 2.693562 -0.317265 -3.994743 -0.320476 8.641156 -6.429095 14.619448 -6.622411 -0.000001 -0.000001 -0.000001 
0.012357 3.389957 9.140089 6.431615 -0.573017 -3.039880 4.717638 -3.728526 2.394453 9.566988 -7.788295 4.482442 9.566984 -7.788297 4.482441 -8.369475 4.718785 -1.513025 -11.760719 10.568299 -2.784126 -0.000000 -0.000000 0.000000 0.820761 -5.938089 -11.001628 -4.601712 10.252571 -55.707440 -350.728766 -121.332314 -351.994263 4.743903 -24.938100 2.013289 -3.691980 -7.086342 -6.633073 5.370488 13.667900 2.734581 -0.000012 -0.000006 0.000015 -0.000004 0.000000 -0.000004 -4.672416 -5.522380 -80.133193 -6.366070 -4.181210 -88.136153 -0.000009 0.000002 -0.000003 -0.000002 -0.000003 0.000002 -5.002472 -3.770071 -83.612089 -5.351335 -5.404686 -81.918652 -0.000002 -0.000005 -0.000004 0.000001 -0.000001 -0.000001 -3.797869 4.562835 -87.654563 -3.193384 -4.317164 -84.640893 -0.000005 -0.000001 -0.000006 -0.000002 0.000000 0.000003 -3.383501 10.940750 -93.310773 -1.736001 -6.210623 -94.162723 0.000007 -0.000000 0.000003 0.000000 -0.000001 0.000001 0.787947 -1.794077 4.445856 33.256656 -29.221953 59.836063 -4.369008 85.154598 16.609628 -0.421818 12.561254 5.940349 1.709938 0.872840 7.087467 7.240286 -17.913457 -2.895327 -0.000004 -0.000006 0.000013 0.000000 0.000000 -0.000002 3.784449 1.542031 64.078642 -4.695743 2.911853 83.250621 -0.000011 -0.000002 0.000003 0.000000 0.000001 0.000002 -1.629884 1.469388 69.260550 -3.950419 4.195535 77.032376 0.000001 0.000012 0.000008 -0.000001 -0.000001 0.000000 -2.697810 -3.257072 76.714219 -4.075461 5.607633 79.703363 0.000011 0.000007 -0.000005 0.000000 0.000000 0.000000 -3.139508 -7.775593 89.449892 -4.750633 9.370581 89.258319 0.000010 -0.000005 0.000001 -0.000000 -0.000000 0.000001 9.643049 8.093574 -1.962077 61.629603 3.737713 7.096099 8.375003 0.169768 -7.950577 -2.077843 -3.281732 -4.398935 -0.000000 -0.000001 -0.000002 -47.214222 -3.627240 1.903953 14.574005 1.798648 -0.193685 -4.043473 -0.517404 10.480077 -6.819280 16.770857 -7.781687 -0.000001 0.000001 0.000000 
